ffmpeg version 4.2.4-1ubuntu0.1 Copyright (c) 2000-2020 the FFmpeg developers
  built with gcc 9 (Ubuntu 9.3.0-10ubuntu2)
  configuration: --prefix=/usr --extra-version=1ubuntu0.1 --toolchain=hardened --libdir=/usr/lib/x86_64-linux-gnu --incdir=/usr/include/x86_64-linux-gnu --arch=amd64 --enable-gpl --disable-stripping --enable-avresample --disable-filter=resample --enable-avisynth --enable-gnutls --enable-ladspa --enable-libaom --enable-libass --enable-libbluray --enable-libbs2b --enable-libcaca --enable-libcdio --enable-libcodec2 --enable-libflite --enable-libfontconfig --enable-libfreetype --enable-libfribidi --enable-libgme --enable-libgsm --enable-libjack --enable-libmp3lame --enable-libmysofa --enable-libopenjpeg --enable-libopenmpt --enable-libopus --enable-libpulse --enable-librsvg --enable-librubberband --enable-libshine --enable-libsnappy --enable-libsoxr --enable-libspeex --enable-libssh --enable-libtheora --enable-libtwolame --enable-libvidstab --enable-libvorbis --enable-libvpx --enable-libwavpack --enable-libwebp --enable-libx265 --enable-libxml2 --enable-libxvid --enable-libzmq --enable-libzvbi --enable-lv2 --enable-omx --enable-openal --enable-opencl --enable-opengl --enable-sdl2 --enable-libdc1394 --enable-libdrm --enable-libiec61883 --enable-nvenc --enable-chromaprint --enable-frei0r --enable-libx264 --enable-shared
  libavutil      56. 31.100 / 56. 31.100
  libavcodec     58. 54.100 / 58. 54.100
  libavformat    58. 29.100 / 58. 29.100
  libavdevice    58.  8.100 / 58.  8.100
  libavfilter     7. 57.100 /  7. 57.100
  libavresample   4.  0.  0 /  4.  0.  0
  libswscale      5.  5.100 /  5.  5.100
  libswresample   3.  5.100 /  3.  5.100
  libpostproc    55.  5.100 / 55.  5.100
Routing option strict to both codec and muxer layer
[h264 @ 0x56510b52dd80] Reinit context to 640x352, pix_fmt: yuv420p
Input #0, mov,mp4,m4a,3gp,3g2,mj2, from '/var/www/html/project/media/video/original/WhatsApp_Video_2022-02-14_at_12.46.52.mp4':
  Metadata:
    major_brand     : mp42
    minor_version   : 0
    compatible_brands: mp42isom
  Duration: 00:00:26.95, start: 0.000000, bitrate: 2074 kb/s
    Stream #0:0(und): Video: h264 (Baseline), 1 reference frame (avc1 / 0x31637661), yuv420p(tv, bt470bg/bt470bg/smpte170m, left), 640x352, 1943 kb/s, 29.61 fps, 29.58 tbr, 90k tbn, 180k tbc (default)
    Stream #0:1(und): Audio: aac (LC) (mp4a / 0x6134706D), 48000 Hz, mono, fltp, 128 kb/s (default)
Input #1, png_pipe, from '/var/www/html/project/static/images/templates/logo.png':
  Duration: N/A, bitrate: N/A
    Stream #1:0: Video: png, 1 reference frame, rgba(pc), 1920x1080 [SAR 2835:2835 DAR 16:9], 25 tbr, 25 tbn, 25 tbc
[Parsed_scale_0 @ 0x56510b634040] w:1280 h:720 flags:'bilinear' interl:0
[Parsed_scale_2 @ 0x56510b562c40] w:1280 h:720 flags:'bilinear' interl:0
Stream mapping:
  Stream #0:0 (h264) -> scale (graph 0)
  Stream #1:0 (png) -> scale (graph 0)
  overlay (graph 0) -> Stream #0:0 (libx264)
  Stream #0:1 -> #0:1 (aac (native) -> aac (native))
Press [q] to stop, [?] for help
[h264 @ 0x56510b56a880] Reinit context to 640x352, pix_fmt: yuv420p
[graph_1_in_0_1 @ 0x56510b52ebc0] tb:1/48000 samplefmt:fltp samplerate:48000 chlayout:0x4
[Parsed_scale_0 @ 0x56510bb1c700] w:1280 h:720 flags:'bilinear' interl:0
[Parsed_scale_2 @ 0x56510bb200c0] w:1280 h:720 flags:'bilinear' interl:0
[graph 0 input from stream 0:0 @ 0x56510bb22540] w:640 h:352 pixfmt:yuv420p tb:1/90000 fr:355/12 sar:0/1 sws_param:flags=2
[graph 0 input from stream 1:0 @ 0x56510bb235c0] w:1920 h:1080 pixfmt:rgba tb:1/25 fr:25/1 sar:2835/2835 sws_param:flags=2
[Parsed_scale_0 @ 0x56510bb1c700] w:640 h:352 fmt:yuv420p sar:0/1 -> w:1280 h:720 fmt:yuv420p sar:0/1 flags:0x2
[Parsed_setsar_1 @ 0x56510bb1bc80] w:1280 h:720 sar:0/1 dar:16/9 -> sar:1/1 dar:16/9
[Parsed_scale_2 @ 0x56510bb200c0] w:1920 h:1080 fmt:rgba sar:2835/2835 -> w:1280 h:720 fmt:yuva420p sar:1/1 flags:0x2
[Parsed_setsar_3 @ 0x56510bb20b00] w:1280 h:720 sar:1/1 dar:16/9 -> sar:1/1 dar:16/9
[Parsed_overlay_4 @ 0x56510bb21780] main w:1280 h:720 fmt:yuv420p overlay w:1280 h:720 fmt:yuva420p
[Parsed_overlay_4 @ 0x56510bb21780] [framesync @ 0x56510bb218a8] Selected 1/90000 time base
[Parsed_overlay_4 @ 0x56510bb21780] [framesync @ 0x56510bb218a8] Sync level 2
[libx264 @ 0x56510b5ca540] using SAR=1/1
[libx264 @ 0x56510b5ca540] using cpu capabilities: MMX2 SSE2Fast SSSE3 SSE4.2 AVX FMA3 BMI2 AVX2
[libx264 @ 0x56510b5ca540] profile High, level 3.1
[libx264 @ 0x56510b5ca540] 264 - core 155 r2917 0a84d98 - H.264/MPEG-4 AVC codec - Copyleft 2003-2018 - http://www.videolan.org/x264.html - options: cabac=1 ref=1 deblock=1:0:0 analyse=0x3:0x113 me=hex subme=2 psy=1 psy_rd=1.00:0.00 mixed_ref=0 me_range=16 chroma_me=1 trellis=0 8x8dct=1 cqm=0 deadzone=21,11 fast_pskip=1 chroma_qp_offset=0 threads=22 lookahead_threads=5 sliced_threads=0 nr=0 decimate=1 interlaced=0 bluray_compat=0 constrained_intra=0 bframes=3 b_pyramid=2 b_adapt=1 b_bias=0 direct=1 weightb=1 open_gop=0 weightp=1 keyint=250 keyint_min=25 scenecut=40 intra_refresh=0 rc_lookahead=10 rc=crf mbtree=1 crf=18.0 qcomp=0.60 qpmin=0 qpmax=69 qpstep=4 ip_ratio=1.40 aq=1:1.00
Output #0, mp4, to '/var/www/html/project/media/video/watermarks/WhatsApp_Video_2022-02-14_at_12.46.52.mp4':
  Metadata:
    major_brand     : mp42
    minor_version   : 0
    compatible_brands: mp42isom
    encoder         : Lavf58.29.100
    Stream #0:0: Video: h264 (libx264), 1 reference frame (avc1 / 0x31637661), yuv420p, 1280x720 [SAR 1:1 DAR 16:9], q=-1--1, 29.58 fps, 11360 tbn, 29.58 tbc (default)
    Metadata:
      encoder         : Lavc58.54.100 libx264
    Side data:
      cpb: bitrate max/min/avg: 0/0/0 buffer size: 0 vbv_delay: -1
    Stream #0:1(und): Audio: aac (LC) (mp4a / 0x6134706D), 48000 Hz, mono, fltp, delay 1024, 69 kb/s (default)
    Metadata:
      encoder         : Lavc58.54.100 aac
Past duration 0.600182 too large
Past duration 0.600929 too large
Past duration 0.601662 too large
Past duration 0.602409 too large
Past duration 0.603157 too large
Past duration 0.603889 too large
Past duration 0.604637 too large
Past duration 0.605370 too large
Past duration 0.606117 too large
Past duration 0.606850 too large
Past duration 0.607597 too large
Past duration 0.608330 too large
Past duration 0.609077 too large
Past duration 0.609810 too large
Past duration 0.610558 too large
Past duration 0.611305 too large
Past duration 0.612038 too large
Past duration 0.612785 too large
Past duration 0.613518 too large
Past duration 0.614265 too large
Past duration 0.614998 too large
Past duration 0.615746 too large
Past duration 0.616478 too large
Past duration 0.617226 too large
Past duration 0.617958 too large
Past duration 0.618706 too large
Past duration 0.619453 too large
Past duration 0.620186 too large
Past duration 0.620934 too large
Past duration 0.621666 too large
Past duration 0.622414 too large
Past duration 0.623146 too large
Past duration 0.623894 too large
[Parsed_overlay_4 @ 0x56510bb21780] [framesync @ 0x56510bb218a8] Sync level 0
No more output streams to write to, finishing.
frame=  798 fps=278 q=-1.0 Lsize=    7635kB time=00:00:26.94 bitrate=2321.2kbits/s speed=9.39x    
[AVIOContext @ 0x56510b52c0c0] Statistics: 0 seeks, 6 writeouts
video:7378kB audio:229kB subtitle:0kB other streams:0kB global headers:0kB muxing overhead: 0.366706%
Input file #0 (/var/www/html/project/media/video/original/WhatsApp_Video_2022-02-14_at_12.46.52.mp4):
  Input stream #0:0 (video): 798 packets read (6547388 bytes); 798 frames decoded; 
  Input stream #0:1 (audio): 1263 packets read (431175 bytes); 1263 frames decoded (1293312 samples); 
  Total: 2061 packets (6978563 bytes) demuxed
Input file #1 (/var/www/html/project/static/images/templates/logo.png):
  Input stream #1:0 (video): 1 packets read (111578 bytes); 1 frames decoded; 
  Total: 1 packets (111578 bytes) demuxed
Output file #0 (/var/www/html/project/media/video/watermarks/WhatsApp_Video_2022-02-14_at_12.46.52.mp4):
  Output stream #0:0 (video): 798 frames encoded; 798 packets muxed (7554841 bytes); 
  Output stream #0:1 (audio): 1263 frames encoded (1293312 samples); 1264 packets muxed (234499 bytes); 
  Total: 2062 packets (7789340 bytes) muxed
[AVIOContext @ 0x56510b562180] Statistics: 2 seeks, 33 writeouts
[libx264 @ 0x56510b5ca540] frame I:4     Avg QP:14.80  size: 91936
[libx264 @ 0x56510b5ca540] frame P:405   Avg QP:17.08  size: 14489
[libx264 @ 0x56510b5ca540] frame B:389   Avg QP:19.57  size:  3389
[libx264 @ 0x56510b5ca540] consecutive B-frames: 32.6%  5.0%  6.8% 55.6%
[libx264 @ 0x56510b5ca540] mb I  I16..4: 12.8% 26.5% 60.7%
[libx264 @ 0x56510b5ca540] mb P  I16..4:  2.7%  3.0%  0.6%  P16..4: 41.4% 11.4%  7.4%  0.0%  0.0%    skip:33.5%
[libx264 @ 0x56510b5ca540] mb B  I16..4:  0.5%  0.3%  0.0%  B16..8: 12.0%  3.3%  0.4%  direct:11.8%  skip:71.6%  L0:37.0% L1:49.8% BI:13.1%
[libx264 @ 0x56510b5ca540] 8x8 transform intra:43.9% inter:38.1%
[libx264 @ 0x56510b5ca540] coded y,uvDC,uvAC intra: 51.6% 35.5% 13.2% inter: 13.7% 15.2% 0.3%
[libx264 @ 0x56510b5ca540] i16 v,h,dc,p: 48% 27% 18%  8%
[libx264 @ 0x56510b5ca540] i8 v,h,dc,ddl,ddr,vr,hd,vl,hu: 20% 31% 28%  3%  3%  3%  4%  3%  5%
[libx264 @ 0x56510b5ca540] i4 v,h,dc,ddl,ddr,vr,hd,vl,hu: 23% 30% 14%  4%  6%  5%  7%  4%  6%
[libx264 @ 0x56510b5ca540] i8c dc,h,v,p: 61% 19% 18%  3%
[libx264 @ 0x56510b5ca540] Weighted P-Frames: Y:0.7% UV:0.0%
[libx264 @ 0x56510b5ca540] kb/s:2240.37
[aac @ 0x56510b56b480] Qavg: 207.612
[AVIOContext @ 0x56510b535040] Statistics: 7956236 bytes read, 27 seeks
[AVIOContext @ 0x56510b63bd40] Statistics: 111578 bytes read, 0 seeks
